<svg width="138" height="24" viewBox="0 0 138 24" fill="none" xmlns="http://www.w3.org/2000/svg">
<path d="M7 13.1707C5.83481 13.5825 5 14.6938 5 16C5 17.6569 6.34315 19 8 19C9.65685 19 11 17.6569 11 16C11 14.6938 10.1652 13.5825 9 13.1707L9 0H16C20.4183 0 24 3.58172 24 8V22C24 23.1046 23.1046 24 22 24H17V10.8293C18.1652 10.4175 19 9.30622 19 8C19 6.34315 17.6569 5 16 5C14.3431 5 13 6.34315 13 8C13 9.30622 13.8348 10.4175 15 10.8293V24H8C3.58172 24 0 20.4183 0 16V8C0 3.92038 3.05369 0.553991 7 0.0618936L7 13.1707Z" fill="url(#paint0_linear_526_8768)"/>
<path fill-rule="evenodd" clip-rule="evenodd" d="M32.0367 4H28V20H40.1101V16H32.0367V4ZM109.743 4H97.6329V20H109.743V16H101.67V14H107.725V10H101.67V8H109.743V4ZM43.1376 4H47.1743V20H43.1376V4ZM138 4H133.963V20H138V4ZM80.4771 9C80.4771 6.23858 82.7157 4 85.4771 4H94.6055V8H85.5138C84.9615 8 84.5138 8.44772 84.5138 9C84.5138 9.55228 84.9615 10 85.5138 10H89.6055C92.367 10 94.6055 12.2386 94.6055 15C94.6055 17.7614 92.3669 20 89.6055 20H85.0184L82.4955 16H89.5688C90.1211 16 90.5688 15.5523 90.5688 15C90.5688 14.4477 90.1211 14 89.5688 14H85.4771C82.7157 14 80.4771 11.7614 80.4771 9ZM71.3945 4H67.3578V20H71.3945V17L73.2867 13.875L76.8188 20H81.4862L75.5574 10L79.2156 4H74.422L71.3945 9V4ZM50.2019 4H54.2386L60.2936 14V4H64.3303V20H60.2936L54.2386 10V20H50.2019V4ZM116.807 4H112.77V20H116.807V10L121.853 17L126.899 10V20H130.936V4H126.899L121.853 11L116.807 4Z" fill="#424242"/>
<defs>
<linearGradient id="paint0_linear_526_8768" x1="12" y1="0" x2="12" y2="24" gradientUnits="userSpaceOnUse">
<stop stop-color="#2ACDFF"/>
<stop offset="1" stop-color="#5D4DFF"/>
</linearGradient>
</defs>
</svg>
